<svg width="100" height="100" xmlns="http://www.w3.org/2000/svg" preserveAspectRatio="xMidYMid">

 <g>
  <title>background</title>
  <rect fill="none" id="canvas_background" height="102" width="102" y="-1" x="-1"/>
 </g>
 <g>
  <title>Layer 1</title>
  <g stroke="null" id="svg_1">
   <path stroke="null" id="svg_2" fill="#539E43" d="m49.999999,98.452901c-1.335405,0 -2.58178,-0.356107 -3.739132,-0.979295l-11.840577,-7.033127c-1.780539,-0.979298 -0.890268,-1.335405 -0.356107,-1.513459c2.403727,-0.801241 2.848861,-0.979295 5.341614,-2.403727c0.26708,-0.178054 0.623188,-0.089027 0.890268,0.089027l9.080747,5.430641c0.356107,0.178057 0.801241,0.178057 1.068322,0l35.521738,-20.565217c0.356107,-0.178054 0.534164,-0.534161 0.534164,-0.979295l0,-41.041406c0,-0.445137 -0.178057,-0.801245 -0.534164,-0.979298l-35.521738,-20.47619c-0.356107,-0.178054 -0.801241,-0.178054 -1.068322,0l-35.521738,20.47619c-0.356107,0.178054 -0.534164,0.623188 -0.534164,0.979298l0,41.041406c0,0.356107 0.178057,0.801241 0.534164,0.979295l9.703931,5.608698c5.252591,2.670807 8.546586,-0.445137 8.546586,-3.561079l0,-40.507246c0,-0.534161 0.445134,-1.068322 1.068322,-1.068322l4.540373,0c0.534161,0 1.068322,0.445134 1.068322,1.068322l0,40.507246c0,7.033127 -3.828156,11.128363 -10.505175,11.128363c-2.047616,0 -3.650102,0 -8.190475,-2.22567l-9.347827,-5.341614c-2.314697,-1.335405 -3.739129,-3.828159 -3.739129,-6.498966l0,-41.041406c0,-2.670807 1.424432,-5.163561 3.739129,-6.498966l35.521738,-20.565217c2.225673,-1.246378 5.252591,-1.246378 7.478264,0l35.521735,20.565217c2.3147,1.335405 3.739132,3.828159 3.739132,6.498966l0,41.041406c0,2.670807 -1.424432,5.163561 -3.739132,6.498966l-35.521735,20.565217c-1.157352,0.534161 -2.492754,0.801241 -3.739132,0.801241l0,0zm10.950309,-28.221531c-15.579709,0 -18.784677,-7.122154 -18.784677,-13.175982c0,-0.534164 0.445134,-1.068325 1.068322,-1.068325l4.6294,0c0.534161,0 0.979295,0.356107 0.979295,0.890271c0.712218,4.718424 2.759837,7.033124 12.196688,7.033124c7.478261,0 10.683232,-1.691509 10.683232,-5.697722c0,-2.3147 -0.890271,-4.006212 -12.552798,-5.163561c-9.703931,-0.979298 -15.757763,-3.115941 -15.757763,-10.861282c0,-7.21118 6.053832,-11.484473 16.2029,-11.484473c11.395443,0 17.004138,3.917186 17.716356,12.463768c0,0.26708 -0.089027,0.534161 -0.26708,0.801241c-0.178054,0.178054 -0.445137,0.356107 -0.712218,0.356107l-4.629397,0c-0.445134,0 -0.890271,-0.356107 -0.979298,-0.801241c-1.068322,-4.89648 -3.828156,-6.498966 -11.128363,-6.498966c-8.190479,0 -9.169773,2.848864 -9.169773,4.985507c0,2.581784 1.157352,3.383025 12.196688,4.807457c10.950309,1.424429 16.11387,3.472048 16.11387,11.128363c-0.089027,7.834368 -6.498963,12.285715 -17.805383,12.285715l0,0z"/>
  </g>
 </g>
</svg>