<svg width="100" height="100" xmlns="http://www.w3.org/2000/svg" preserveAspectRatio="xMidYMid">

 <g>
  <title>background</title>
  <rect fill="none" id="canvas_background" height="102" width="102" y="-1" x="-1"/>
 </g>
 <g>
  <title>Layer 1</title>
  <g stroke="null" id="svg_40">
   <path stroke="null" id="svg_1" fill="#A5DBE8" d="m32.765398,76.1905c0.782469,-0.348359 1.575273,-0.668773 2.375352,-0.969281c0.903438,-0.339555 1.814148,-0.65882 2.737109,-0.936742c1.14882,-0.346063 2.307211,-0.659203 3.481297,-0.908414a43.180867,43.180867 0 0 1 4.798172,-0.741508a149.990914,149.990914 0 0 1 -2.989,8.486187a28.159688,28.159688 0 0 1 0.08575,1.6415a34.812586,34.812586 0 0 1 6.745922,-0.661117c2.308742,0 4.563125,0.230453 6.745922,0.661117a28.159688,28.159688 0 0 1 0.08575,-1.6415a149.690406,149.690406 0 0 1 -2.989,-8.486187c1.613555,0.15657 3.215242,0.405398 4.798172,0.741508c1.173703,0.249211 2.332094,0.562352 3.480914,0.908414c0.923344,0.277922 1.834055,0.597188 2.737492,0.936742c0.800461,0.300891 1.593648,0.621305 2.376117,0.969664a42.51707,42.51707 0 0 1 14.765078,10.899055c10.404844,-8.984992 16.999555,-22.263227 16.999555,-37.089938c0,-27.061781 -21.938219,-49 -49,-49c-27.061781,0 -49,21.938219 -49,49c0,14.826711 6.594711,28.104563 16.999555,37.089938a42.520898,42.520898 0 0 1 14.765844,-10.899438"/>
   <path stroke="null" id="svg_2" fill="#525353" d="m67.235367,76.190883l3.041828,10.459586l0.862859,0.040578c0.560055,0 0.953969,0.147383 0.953969,0.707437c0,0.931 0.048234,1.977227 0.13743,2.890617c0.757969,0.643508 1.68093,1.36932 2.380711,2.074461a49.116758,49.116758 0 0 0 7.388281,-5.273625a42.51707,42.51707 0 0 0 -14.765078,-10.899055m-5.947758,-0.104508l3.571641,-0.865156c-0.903438,-0.339555 -1.814148,-0.65882 -2.737492,-0.936742c-1.14882,-0.346063 -2.307211,-0.659203 -3.480914,-0.908414a43.180867,43.180867 0 0 0 -4.798172,-0.741508a149.690406,149.690406 0 0 0 2.989,8.486187a28.159688,28.159688 0 0 0 -0.08575,1.6415c2.530773,0.499188 5.019055,1.366641 7.319758,2.384156l-2.77807,-9.060023"/>
   <path stroke="null" id="svg_3" d="m25.387836,92.363563c0.568859,0.331516 1.143461,0.654992 1.727633,0.963922c0.204422,-0.981914 0.531344,-2.34243 0.630109,-3.352672c-0.757969,0.643508 -1.657961,1.683609 -2.357742,2.38875m38.618125,-7.307508a34.385367,34.385367 0 0 0 -7.260039,-2.293813a34.815648,34.815648 0 0 0 -6.745922,-0.661117c-2.309125,0 -4.563125,0.230453 -6.745922,0.661117c-2.530391,0.498805 -5.170648,1.255625 -7.470586,2.272758l-0.244617,1.523977l28.923016,0l-0.45593,-1.502922"/>
   <path stroke="null" id="svg_4" fill="#525353" d="m27.656,90.264984c0.089578,-0.913391 0.154273,-1.727633 0.154273,-2.659016c0,-0.559672 0.383961,-0.918367 0.944016,-0.918367l0.918367,-0.032156l3.092742,-10.464945a42.520898,42.520898 0 0 0 -14.765844,10.899438a49.116758,49.116758 0 0 0 7.388281,5.273625a34.948102,34.948102 0 0 1 2.186625,-2.025078"/>
   <path stroke="null" id="svg_5" d="m72.605461,92.126602c0.198297,0.995313 0.243086,1.193609 0.27907,1.200883a48.328164,48.328164 0 0 0 1.727633,-0.963922a35.597734,35.597734 0 0 0 -2.209594,-2.047664l0.202891,1.810703"/>
   <path stroke="null" id="svg_6" fill="#AA9678" d="m64.005961,85.056055l0.45593,1.502922l5.915984,0l-3.142508,-10.368094a43.270063,43.270063 0 0 0 -2.376117,-0.969664l-3.571641,0.865156l2.718352,8.96968"/>
   <path stroke="null" id="svg_7" fill="#C4B6A1" d="m29.725867,88.652961c0.031008,-0.02182 0.062398,-0.043641 0.093023,-0.065844l-0.088812,0c-0.000766,0.02182 -0.003062,0.044023 -0.004211,0.065844"/>
   <path stroke="null" id="svg_8" fill="#AA9678" d="m70.269922,88.587117l-0.089195,0l0.093023,0.065844c-0.000766,-0.02182 -0.003063,-0.044023 -0.003828,-0.065844"/>
   <path stroke="null" id="svg_9" fill="#AA9678" d="m70.168094,88.435906l-20.210203,0.022969l0.042109,10.541125c7.5215,0 14.644875,-1.699305 21.013727,-4.728117c-0.415734,-1.826781 -0.457461,-3.794438 -0.525219,-5.709266c-0.030625,-0.022203 -0.320414,-0.126711 -0.320414,-0.126711"/>
   <path stroke="null" id="svg_10" fill="#C4B6A1" d="m49.967461,88.502516s-20.321602,-0.025648 -20.352609,-0.003828c-0.067375,1.915211 -0.462437,4.187586 -0.628578,5.773195c6.368852,3.028813 13.492227,4.728117 21.013727,4.728117l0.011484,-10.463414l-0.044023,-0.03407"/>
   <path stroke="null" id="svg_11" fill="#786453" d="m50,87.573047l0.000383,0l0,1.01407l-0.000383,0l0,-1.01407z"/>
   <path stroke="null" id="svg_12" fill="#525353" d="m64.029695,79.566906"/>
   <path stroke="null" id="svg_13" fill="#AA9678" d="m65.157078,80.68625l0.010336,0.031773l-0.010336,-0.031773s-0.496891,-0.393914 -1.127383,-1.119344c0.630492,0.72543 1.127383,1.119344 1.127383,1.119344"/>
   <path stroke="null" id="svg_14" fill="#FFF" d="m80.129641,36.351969l0,0.002297l0,-0.002297m1.971867,14.107789l0.000383,-0.014547l-0.000383,0.014547"/>
   <path stroke="null" id="svg_15" fill="#BBBCBD" d="m82.101891,50.445211l-0.000383,-0.013398l0.000383,0.013398"/>
   <path stroke="null" id="svg_16" fill="#676A6A" d="m82.046766,49.681883c0.001531,0.013016 0.005359,0.0245 0.006891,0.037516c0.001148,0.008039 0.003445,0.015313 0.004594,0.022969l0,0.003062c0.023352,0.187195 0.032156,0.382813 0.036367,0.579961c0.000766,0.036367 0.006891,0.070437 0.006891,0.106422l0.000383,0.013398l-0.000383,0.014547c-0.000383,0.039047 -0.006891,0.075414 -0.007273,0.114078a5.839039,5.839039 0 0 1 -0.035602,0.568859l0,0.00268l-0.005359,0.027945c-0.001531,0.01493 -0.006125,0.028328 -0.008039,0.042875a5.257547,5.257547 0 0 1 -0.109867,0.579961l-0.000766,0.00268l0,0.000383l0.006891,-0.007656l0.00268,-0.008805l0,0.000383l1.282422,-1.342523l-1.292758,-1.353242l0.000383,0.00268c0.048234,0.188727 0.084984,0.387023 0.112547,0.591828"/>
   <path stroke="null" id="svg_17" d="m82.045234,51.216195c0.003445,-0.025266 0.009953,-0.047852 0.013398,-0.0735c0.022586,-0.18375 0.031008,-0.375539 0.035602,-0.568859c0.000383,-0.043641 0.007273,-0.084602 0.007273,-0.128625c0,-0.040961 -0.006125,-0.079242 -0.006891,-0.11982a5.709266,5.709266 0 0 0 -0.036367,-0.579961c-0.003062,-0.022203 -0.008805,-0.041727 -0.011484,-0.063547a5.192852,5.192852 0 0 0 -0.112547,-0.591828c-0.016844,-0.065844 -0.040195,-0.124414 -0.059719,-0.187961c-0.115992,-0.383578 -0.274094,-0.722367 -0.461672,-1.003734a3.047953,3.047953 0 0 0 -0.235047,-0.30625a1.987562,1.987562 0 0 0 -0.253422,-0.23543c-0.033688,-0.025648 -0.069289,-0.043641 -0.103742,-0.065844a1.440523,1.440523 0 0 0 -0.339938,-0.164227a1.189781,1.189781 0 0 0 -0.351039,-0.060484c-0.120203,0 -0.236578,0.025266 -0.351039,0.060484a1.427891,1.427891 0 0 0 -0.34032,0.164227c-0.033687,0.022203 -0.069672,0.039813 -0.102977,0.065461a2.022016,2.022016 0 0 0 -0.411141,0.432195a2.576328,2.576328 0 0 0 -0.077711,0.11025c-0.187578,0.281367 -0.346063,0.620156 -0.461672,1.003734l-0.014547,0.045938c-0.051297,0.176094 -0.091109,0.361375 -0.124414,0.551633c-0.009953,0.058187 -0.023352,0.114078 -0.031391,0.173797c-0.030625,0.212844 -0.04632,0.434875 -0.050148,0.662266c-0.000383,0.031391 -0.005359,0.06125 -0.005359,0.092641l0.007656,0c0,1.866594 0.883148,3.379469 1.97225,3.379469c0.187578,0 0.367883,-0.049 0.539766,-0.132836a1.595945,1.595945 0 0 0 0.290172,-0.183367c0.037133,-0.029859 0.071969,-0.065844 0.10757,-0.099531c0.086898,-0.081156 0.169586,-0.173031 0.248062,-0.275242c0.054359,-0.071586 0.107953,-0.143172 0.157719,-0.22318c0.031773,-0.050914 0.060867,-0.106039 0.090344,-0.160398c0.055125,-0.101828 0.107187,-0.207867 0.154273,-0.320414c0.017609,-0.040578 0.035602,-0.080008 0.05168,-0.121734c0.060102,-0.15657 0.112547,-0.321945 0.156953,-0.495359c0.047086,-0.184898 0.082305,-0.379367 0.109867,-0.579961zm-1.844773,-1.220789c-0.408461,0 -0.739594,-0.567711 -0.739594,-1.267492c0,-0.699398 0.331133,-1.267109 0.739594,-1.267109s0.739211,0.567711 0.739211,1.267109c0,0.699781 -0.33075,1.267492 -0.739211,1.267492z"/>
   <path stroke="null" id="svg_18" fill="#FFF" d="m80.200461,47.460805c-0.408461,0 -0.739594,0.567711 -0.739594,1.267109c0,0.699781 0.331133,1.267492 0.739594,1.267492s0.739211,-0.567711 0.739211,-1.267492c0,-0.699398 -0.33075,-1.267109 -0.739211,-1.267109"/>
   <path stroke="null" id="svg_19" fill="#909393" d="m78.384781,48.902477c0.115609,-0.383578 0.274094,-0.722367 0.461672,-1.003734c0.025266,-0.038281 0.050914,-0.073883 0.077711,-0.11025a1.99407,1.99407 0 0 1 0.411141,-0.432195c0.033305,-0.025648 0.069289,-0.043258 0.102977,-0.065461a1.412578,1.412578 0 0 1 0.34032,-0.164227c0.114078,-0.035984 0.230836,-0.060484 0.351039,-0.060484c0.120203,0 0.236961,0.0245 0.351039,0.060484a1.440523,1.440523 0 0 1 0.339938,0.164227c0.034453,0.022203 0.070055,0.040195 0.103742,0.065844c0.088047,0.067375 0.172266,0.147 0.253422,0.23543a3.047953,3.047953 0 0 1 0.235047,0.30625c0.187578,0.281367 0.34568,0.620156 0.461672,1.003734l0,0.000766l-1.744859,-7.991977l-1.745242,7.991594l0.000383,0"/>
   <path stroke="null" id="svg_20" d="m57.005086,50.370562c-0.002297,-0.160781 -0.012633,-0.319648 -0.030625,-0.475836c-0.000383,-0.001914 -0.001148,-0.004211 -0.001148,-0.006508a4.676438,4.676438 0 0 0 -0.076945,-0.454781l-0.003062,-0.011484a4.598344,4.598344 0 0 0 -0.11982,-0.434109l-0.003828,-0.00957a4.378609,4.378609 0 0 0 -0.161547,-0.4165c-0.000766,-0.00268 -0.00268,-0.005359 -0.003828,-0.008422a4.64007,4.64007 0 0 0 -2.465695,-2.38875l-0.013398,-0.004977a4.579586,4.579586 0 0 0 -0.826109,-0.249211c-0.007273,-0.001148 -0.014164,-0.001531 -0.021437,-0.003062a4.589922,4.589922 0 0 0 -0.885445,-0.086898c-0.298211,0 -0.588,0.030625 -0.870133,0.084602l-0.029859,0.004594c-0.280602,0.055891 -0.55125,0.137813 -0.81118,0.241938l-0.020672,0.008039a4.575375,4.575375 0 0 0 -0.753758,0.390852c-0.238492,0.153891 -0.462438,0.328836 -0.668391,0.522156l-0.004977,0.015695l-0.017227,0.003828a4.678734,4.678734 0 0 0 -0.837977,1.069578l-0.008422,0.014164c-0.068906,0.121352 -0.131305,0.24768 -0.188727,0.376305c-0.006125,0.013781 -0.013781,0.026797 -0.019523,0.040578c-0.052445,0.119055 -0.097617,0.24232 -0.139727,0.366352c-0.008039,0.0245 -0.018758,0.047469 -0.026414,0.071586c-0.03675,0.115992 -0.066609,0.235047 -0.094938,0.354102c-0.007273,0.034453 -0.018375,0.067375 -0.025648,0.101445c-0.0245,0.117906 -0.041344,0.238492 -0.057039,0.359461c-0.004594,0.037133 -0.012633,0.072734 -0.016461,0.109867a4.594516,4.594516 0 0 0 0.062781,1.373531c0.000766,0.005742 0.001148,0.01225 0.00268,0.018375c0.057805,0.288258 0.142789,0.56618 0.251891,0.832234c0.001531,0.003828 0.002297,0.007656 0.004211,0.011102a4.63318,4.63318 0 0 0 0.940188,1.439375c0.313906,0.327305 0.675281,0.607906 1.072641,0.832234l0.005742,0.003445c0.124031,0.069672 0.252273,0.132453 0.382813,0.190641c0.010719,0.004594 0.021055,0.010719 0.032156,0.015313c0.120969,0.052828 0.246148,0.098383 0.372094,0.140875c0.021437,0.007273 0.042109,0.016461 0.063547,0.023352c0.116375,0.037133 0.236578,0.066992 0.356781,0.094555c0.032539,0.007656 0.06393,0.018375 0.096852,0.025266c0.116758,0.024117 0.236961,0.040578 0.35793,0.056273c0.036367,0.004211 0.072352,0.012633 0.109484,0.016461a4.606383,4.606383 0 0 0 3.060203,-0.763328a4.64543,4.64543 0 0 0 1.247203,-1.24682a4.604086,4.604086 0 0 0 0.788594,-2.581305c0,-0.011102 -0.001531,-0.021437 -0.001531,-0.031773c-0.000383,-0.011867 -0.001914,-0.022969 -0.002297,-0.034836zm-4.612891,-0.540914a1.734141,1.734141 0 1 1 0.000383,-3.468664a1.734141,1.734141 0 0 1 -0.000383,3.468664z"/>
   <path stroke="null" id="svg_21" fill="#FFF" d="m52.392195,46.360984a1.734141,1.734141 0 1 0 0,3.468281a1.734141,1.734141 0 0 0 0,-3.468281"/>
   <path stroke="null" id="svg_22" fill="#BBBCBD" d="m49.216,47.092156l0.017227,-0.003828l0.004977,-0.015695l3.179641,-9.724203l0,-2.27582l-0.000383,-0.025648a27.098148,27.098148 0 0 0 -5.455078,-0.562734c-0.62207,0 -1.239164,0.026414 -1.85243,0.068141c-0.089195,0.006125 -0.178773,0.011484 -0.268352,0.018375c-3.191508,0.24232 -6.334398,1.074172 -9.244539,2.402531c-2.495555,1.139633 -4.81425,2.640641 -6.898664,4.420336l0,0.000383l-0.003445,0.003062a30.448906,30.448906 0 0 0 -1.61968,1.49182c-0.098,0.095703 -0.197531,0.190641 -0.294383,0.287875a32.7565,32.7565 0 0 0 -1.43057,1.538523c-0.099914,0.115227 -0.198297,0.23275 -0.297062,0.349125a33.84675,33.84675 0 0 0 -1.340609,1.677867c-0.035602,0.048234 -0.068906,0.098766 -0.104125,0.147a34.352445,34.352445 0 0 0 -1.169875,1.70275c-0.073117,0.11293 -0.148148,0.224328 -0.219734,0.338406c-0.302422,0.479664 -0.583789,0.972344 -0.863242,1.466172l14.484477,0l13.375852,-3.304437"/>
   <path stroke="null" id="svg_23" fill="#E3DDDB" d="m61.44418,45.998078c0.029477,-0.379367 0.053594,-0.758352 0.073117,-1.138102c0.026414,-0.513734 0.044406,-1.028234 0.054359,-1.542352c0.007656,-0.399273 0.006508,-0.79893 0.004594,-1.198203c0,-0.115227 0.00268,-0.230453 0.001531,-0.346062a61.383219,61.383219 0 0 0 -0.113695,-3.090445l-0.008805,-0.005742l-0.003828,-0.007273a275.949242,275.949242 0 0 0 -1.149586,-0.656906l-0.026797,-0.015312l-0.299742,-0.169586l-0.005359,-0.003062l-0.207867,-0.116375l-0.040961,-0.022969a10.333258,10.333258 0 0 0 -0.151211,-0.082305a28.484695,28.484695 0 0 0 -2.03618,-0.956648c-1.647242,-0.69557 -3.866023,-1.305391 -5.115906,-1.599773l0,2.301469l3.151695,9.739898l0.003445,0.008039c0.325391,0.310078 0.605227,0.666477 0.829555,1.059242l0,0.000383c0.0735,0.128625 0.140875,0.261461 0.201742,0.397359c0.001531,0.003062 0.003062,0.005742 0.003828,0.008422c0.060867,0.135516 0.114461,0.274477 0.161547,0.4165l0.003828,0.00957c0.046703,0.142023 0.086898,0.286727 0.11982,0.434109l0.003062,0.011484c0.032922,0.148914 0.05857,0.300891 0.076945,0.454781c0,0.002297 0.000766,0.004594 0.001148,0.006508c0.017992,0.156188 0.028328,0.315055 0.030625,0.475836l0.011867,0.026031l3.859133,0a42.14268,42.14268 0 0 0 0.557758,-4.280227c0.00268,-0.03943 0.007273,-0.078859 0.010336,-0.118289"/>
   <path stroke="null" id="svg_24" fill="#FCB03F" d="m66.49118,42.554297c-0.00268,0.004211 -0.004594,0.009188 -0.006891,0.013398l0.006891,-0.013016"/>
   <path stroke="null" id="svg_25" fill="#909393" d="m49.238203,47.072633a4.702086,4.702086 0 0 1 0.67107,-0.523305a4.575375,4.575375 0 0 1 0.751078,-0.389703c0.006891,-0.003062 0.014164,-0.004977 0.020672,-0.008039a4.591453,4.591453 0 0 1 0.81118,-0.241938l0.029859,-0.004594a4.618633,4.618633 0 0 1 0.870133,-0.084602c0.303187,0 0.598719,0.030625 0.885445,0.086898c0.007273,0.001531 0.014164,0.001914 0.021437,0.003062a4.579586,4.579586 0 0 1 0.839508,0.254188a4.650406,4.650406 0 0 1 1.434398,0.931766l-0.003445,-0.008039l-3.151695,-9.739898l-3.179641,9.724203"/>
   <path stroke="null" id="svg_26" fill="#676A6A" d="m48.118477,52.179734a4.548961,4.548961 0 0 1 -0.251891,-0.832234c-0.001531,-0.006125 -0.001914,-0.012633 -0.00268,-0.018375a4.594516,4.594516 0 0 1 -0.062781,-1.373531c0.003828,-0.037133 0.011867,-0.072734 0.016461,-0.109867c0.015695,-0.120969 0.032539,-0.241555 0.057039,-0.359461c0.007273,-0.03407 0.018375,-0.066992 0.025648,-0.101445c0.028328,-0.119055 0.058188,-0.238109 0.094938,-0.354102c0.008039,-0.024117 0.017992,-0.047086 0.026414,-0.071586c0.042109,-0.124031 0.087281,-0.247297 0.139727,-0.366352c0.005742,-0.013781 0.013398,-0.026797 0.019523,-0.040578c0.057422,-0.128625 0.11982,-0.254953 0.188727,-0.376305l0.008422,-0.014164a4.678734,4.678734 0 0 1 0.837977,-1.069578l-13.375852,3.304437l-0.025648,0l13.248375,3.233617a4.63318,4.63318 0 0 1 -0.940188,-1.439375c-0.001914,-0.003445 -0.00268,-0.007273 -0.004211,-0.011102"/>
   <path stroke="null" id="svg_27" fill="#E3DDDB" d="m78.21443,49.673844c0.008422,-0.059719 0.021055,-0.115609 0.031391,-0.173797c0.033305,-0.190258 0.073117,-0.375539 0.124414,-0.551633c0.005742,-0.019906 0.008039,-0.042492 0.014164,-0.062016l1.745242,-7.991594l-0.000383,-4.556617c-1.425977,-1.177914 -2.953016,-1.821805 -4.542836,-1.821805c-2.009,0 -3.882102,1.109391 -5.282812,2.479477c-1.532781,1.499477 -2.717203,3.385977 -3.675,5.289703c-0.044023,0.087664 -0.089195,0.171883 -0.132836,0.25993c0.295148,0.255719 0.587234,0.514883 0.875492,0.778641a70.99832,70.99832 0 0 1 1.920188,1.830227c0.293234,0.289406 0.581109,0.584938 0.86975,0.87932c0.30625,0.311992 0.612883,0.623219 0.914539,0.940188a90.179523,90.179523 0 0 1 1.631547,1.760172a103.873109,103.873109 0 0 1 1.364727,1.535461l0.000766,0.000766c0.075414,0.078859 0.128242,0.135516 0.148531,0.158484l3.936078,0c0,-0.031773 0.006508,-0.060867 0.006891,-0.092641c0.003828,-0.227391 0.019523,-0.449422 0.050148,-0.662266m-11.719039,-7.107297l-0.004211,-0.011867l-0.006891,0.013016l0.017227,0.016844a0.332281,0.332281 0 0 0 -0.006125,-0.017992"/>
   <path stroke="null" id="svg_28" fill="#525353" d="m18.982617,55.425602l0.035219,-0.088047a37.121328,37.121328 0 0 1 1.82525,-4.009195c0.106422,-0.202125 0.210547,-0.405016 0.320797,-0.605227c0.060867,-0.110633 0.129773,-0.216289 0.191789,-0.326539c0.279453,-0.493828 0.56082,-0.986508 0.863242,-1.466172c0.071586,-0.114461 0.146617,-0.225477 0.219734,-0.338406a34.352445,34.352445 0 0 1 1.169875,-1.70275c0.035219,-0.048234 0.068523,-0.098766 0.104125,-0.147a33.84675,33.84675 0 0 1 1.340609,-1.677867c0.098766,-0.116375 0.196766,-0.233516 0.297062,-0.349125a32.7565,32.7565 0 0 1 1.43057,-1.538523c0.097234,-0.097234 0.196383,-0.192172 0.294383,-0.287875a30.448906,30.448906 0 0 1 1.61968,-1.49182l0.003445,-0.003445c2.201555,-7.3745 9.310383,-11.906234 17.280922,-11.906234c3.207969,0 6.398328,0.924492 9.132375,2.597c2.804484,1.715383 4.716633,3.391336 6.20118,6.321l0.022203,0.044023c0.037516,0.074266 0.079625,0.145469 0.116375,0.2205l0.003828,0.007273l0.008805,0.005742a29.556953,29.556953 0 0 1 3.552883,2.58207a32.905797,32.905797 0 0 1 1.107094,0.977703c0.119437,0.109484 0.24232,0.213609 0.360227,0.325008c0.002297,-0.004594 0.004211,-0.009187 0.006891,-0.013398a0.066992,0.066992 0 0 1 0.004211,-0.009188c0.040578,-0.08307 0.080391,-0.167672 0.121352,-0.249594c1.123172,-7.088539 4.69175,-10.953797 8.379766,-10.953797c2.779984,0 4.800852,1.657578 6.327125,6.119641l0.015695,0.047852l0.003828,0.005359a16.667656,16.667656 0 0 1 1.258305,1.549625l-0.000766,-0.000383c0.008039,0.010719 0.016461,0.020672 0.0245,0.031773l-0.000383,-0.000383l0.000383,0.000383c0.02182,0.064695 0.040578,0.131305 0.061633,0.196l0,-0.000383l-0.057422,-0.232367c-4.588008,-13.582953 -17.435195,-23.362281 -32.567008,-23.362281c-18.979844,0 -34.365844,15.386 -34.365844,34.365844c0,3.741609 0.597953,7.343875 1.708109,10.695781l0.004594,-0.019523a36.832687,36.832687 0 0 1 1.573359,-5.313055"/>
   <path stroke="null" id="svg_29" fill="#FFF" d="m83.142758,50.442148l-1.198586,1.340992l0,-0.000383l-0.00268,0.008805c-0.045555,0.176477 -0.101445,0.341086 -0.163078,0.499953c-0.016078,0.041727 -0.03407,0.081156 -0.05168,0.121734a3.497375,3.497375 0 0 1 -0.154273,0.320414c-0.029477,0.054359 -0.05857,0.109484 -0.090344,0.160398c-0.049766,0.079625 -0.103359,0.151977 -0.157719,0.22318a2.251703,2.251703 0 0 1 -0.248062,0.275242c-0.035602,0.033305 -0.070055,0.069672 -0.10757,0.099531a1.595945,1.595945 0 0 1 -0.290172,0.183367c-0.171883,0.083836 -0.352187,0.132836 -0.539766,0.132836c-1.089102,0 -1.97225,-1.512875 -1.97225,-3.379469l-3.957133,0l0.002297,0.003062a125.634852,125.634852 0 0 1 2.195047,2.607719a161.818672,161.818672 0 0 1 2.049578,2.556805l0.099531,0.125945a219.600391,219.600391 0 0 1 1.900281,2.461484l0.182984,0.238875a337.82093,337.82093 0 0 1 1.98718,2.642555a34.298086,34.298086 0 0 0 1.802281,-10.636445l-1.112453,-0.042109l-0.173414,0.055508"/>
   <path stroke="null" id="svg_30" d="m44.841602,34.570742c0.089578,-0.006891 0.179156,-0.01225 0.268352,-0.018375a27.264289,27.264289 0 0 1 1.85243,-0.068141c1.863531,0 3.684188,0.199445 5.455078,0.562734l0.000383,0c1.249883,0.294383 3.468664,0.904203 5.115906,1.599773a28.484695,28.484695 0 0 1 2.03618,0.956648l0.151211,0.082305l0.040961,0.022969c0.061633,0.034453 0.129008,0.071586 0.207867,0.116375l0.005359,0.003062l0.299742,0.169586l0.026797,0.015312c0.423391,0.240023 0.891953,0.509141 1.071109,0.611734l0.045938,0.026414l0.032539,0.018758c-0.03675,-0.075031 -0.078859,-0.146234 -0.116375,-0.2205l-0.022203,-0.044023c-1.484547,-2.929664 -3.769937,-5.442445 -6.574422,-7.157828c-2.734047,-1.672508 -5.924406,-2.597 -9.132758,-2.597c-7.970156,0 -14.705742,5.368562 -16.907297,12.743062c2.084414,-1.779695 4.403109,-3.280703 6.898664,-4.420336c2.910141,-1.328359 6.053031,-2.160211 9.244539,-2.402531"/>
   <path stroke="null" id="svg_31" fill="#BBBCBD" d="m82.625195,39.095586l-0.000383,-0.000383l0.000383,0.000383c-0.008039,-0.011102 -0.016461,-0.021055 -0.0245,-0.031773l0.000766,0.000383a16.667656,16.667656 0 0 0 -1.258305,-1.549625l-0.011102,-0.013398a13.963852,13.963852 0 0 0 -0.593742,-0.606758c-0.075414,-0.072352 -0.153508,-0.135516 -0.229687,-0.204805c-0.125945,-0.114461 -0.251125,-0.23275 -0.378984,-0.337641l0,4.558914l1.745242,7.992359l0,-0.000383c0.019141,0.062016 0.042109,0.120203 0.058953,0.184516l1.208922,1.354773l0.011867,-0.013398l1.265195,0c0.001531,-0.117141 0.008805,-0.23275 0.008805,-0.350273l0,-0.001914a34.298852,34.298852 0 0 0 -1.741797,-10.785359l0,0.000383c-0.021055,-0.064695 -0.039812,-0.131305 -0.061633,-0.196"/>
   <path stroke="null" id="svg_32" d="m70.303609,36.995859c1.400711,-1.370086 3.273812,-2.479477 5.282812,-2.479477c1.58982,0 3.116859,0.643891 4.542836,1.821805l0.000383,0.013781l0,0.002297l0,-0.002297c0.127859,0.104891 0.253039,0.22318 0.378984,0.337641c0.07618,0.069289 0.154273,0.132453 0.229687,0.204805a13.963852,13.963852 0 0 1 0.593742,0.606758l0.011102,0.013398a0.020672,0.020672 0 0 0 -0.003445,-0.004594l-0.000383,-0.000383l-0.015695,-0.048234c-1.526273,-4.462063 -3.988906,-7.361102 -6.768125,-7.361102c-3.688398,0 -6.815594,5.106719 -7.938766,12.195258l0.011867,-0.009953c0.957797,-1.903727 2.142219,-3.790227 3.675,-5.289703m-4.983836,43.566359s-0.496508,-0.393531 -1.127,-1.118961a11.398625,11.398625 0 0 1 -0.818836,-1.055414c-0.080391,-0.117141 -0.160016,-0.238875 -0.239258,-0.364437c-0.238492,-0.37707 -0.42875,-0.836062 -0.638531,-1.289695c-0.242703,-0.525219 -0.243469,-0.874727 -0.382813,-1.363961a9.634242,9.634242 0 0 1 -0.243852,-1.095992a9.42982,9.42982 0 0 1 -0.115992,-1.809937c0.010719,-0.349508 0.046703,-0.711266 0.099148,-1.079531a10.59625,10.59625 0 0 1 0.213227,-1.086805c0.277922,-1.111305 0.758352,-2.294961 1.507898,-3.544461l0.190641,-0.427984c0.245,-0.408078 0.299359,-0.390086 0.532109,-0.783234c3.278406,-5.532789 5.047,-9.716547 4.181844,-16.158516a51.384156,51.384156 0 0 0 -0.323094,-1.973781a78.564609,78.564609 0 0 1 -0.239258,1.42368c-0.032539,0.147 -0.121734,0.306633 -0.155422,0.406547c-1.424063,4.214766 -3.665813,7.315164 -6.891391,10.815984a88.000555,88.000555 0 0 1 -1.363578,1.441289a175.041781,175.041781 0 0 1 -2.490195,2.522734c-0.349125,0.347211 -0.705141,0.699398 -1.067281,1.058477c-0.332664,0.329219 -0.746484,1.033211 -1.240313,1.551922c-0.304719,0.853289 -0.651164,1.81568 -0.944016,2.827836c-0.13207,-0.050148 -0.258016,-0.094938 -0.392383,-0.147c-6.265875,-2.423586 -10.461117,-5.661797 -10.461117,-5.661797s3.227875,4.202898 8.666109,8.148164a17.633875,17.633875 0 0 0 1.553836,1.006031c-0.224328,3.550969 1.342141,6.959914 8.41307,7.976664c1.195523,0.171883 2.419758,0.163844 3.652797,0.024883c-0.01225,-0.03675 0.068906,-0.035984 0.062398,-0.056273c-0.006891,-0.020672 0.065844,-0.075031 0.065844,-0.075031"/>
   <path stroke="null" id="svg_33" fill="#9F2254" d="m61.537586,71.421805c6.277359,1.012922 15.567836,0.846781 25.212414,-3.668875c0.232367,-0.108719 0.488469,0.177625 0.720836,0.063547c0,0 -6.591648,6.732523 -14.463805,10.538828c-0.23007,0.111016 -0.457078,0.229305 -0.689445,0.334961c-0.760648,0.347594 -1.534312,0.650398 -2.311039,0.929852c-1.523211,0.547422 -3.066711,0.962773 -4.599109,1.154562c-0.070437,0.009187 -0.140875,0.022586 -0.211313,0.030242a9.488773,9.488773 0 0 1 -0.028711,-0.086898l-0.010336,-0.031773s-0.496891,-0.393914 -1.127383,-1.119344a11.185398,11.185398 0 0 1 -0.818453,-1.055414a10.967961,10.967961 0 0 1 -0.919133,-1.611641a10.064906,10.064906 0 0 1 -0.546273,-1.468852a9.462742,9.462742 0 0 1 -0.360227,-2.90593a9.830625,9.830625 0 0 1 0.099148,-1.079531l0.052828,-0.023734"/>
   <path stroke="null" id="svg_34" fill="#FCB03F" d="m57.038391,64.275078a173.150688,173.150688 0 0 0 2.490578,-2.522734a89.673063,89.673063 0 0 0 1.363578,-1.441289c3.225195,-3.50082 5.592891,-6.77693 7.017336,-10.991695c0.033305,-0.099914 0.066992,-0.231602 0.099531,-0.37975l0.015313,-0.068523c0.033305,-0.157336 0.065844,-0.332281 0.098383,-0.52943c0.013016,-0.135898 0.439086,-0.409992 0.450953,-0.537469c-0.357164,-1.835203 -1.180211,-3.764578 -2.078672,-5.237641a0.332281,0.332281 0 0 1 0.006125,0.017992l-0.017227,-0.016844c-0.117906,-0.111398 -0.240789,-0.215523 -0.360227,-0.325008a32.905797,32.905797 0 0 0 -1.107094,-0.977703a29.587578,29.587578 0 0 0 -3.552883,-2.58207c0.062781,1.031297 0.102977,2.061445 0.113695,3.090445c0.001531,0.115609 -0.001531,0.230836 -0.001531,0.346062c0.001914,0.399273 0.003062,0.79893 -0.004594,1.198203a48.224805,48.224805 0 0 1 -0.054359,1.542352c-0.019523,0.37975 -0.043641,0.758734 -0.073117,1.138102c-0.003063,0.03943 -0.007656,0.078859 -0.010336,0.118289a42.14268,42.14268 0 0 1 -0.557758,4.280227l-0.45325,2.143367c-0.946695,3.838078 -2.869563,7.319375 -4.450578,10.913984c-0.41918,0.953203 -0.816922,1.917125 -1.165664,2.899039l-0.098766,0.277156a65.387055,65.387055 0 0 1 1.263281,-1.296586c0.362523,-0.358695 0.718539,-0.711266 1.067281,-1.058477"/>
   <path stroke="null" id="svg_35" fill="#525353" d="m36.294547,84.917477c2.30032,-1.017516 4.429141,-1.65643 6.959531,-2.155234a28.159688,28.159688 0 0 0 -0.08575,-1.6415a149.990914,149.990914 0 0 0 2.989,-8.486187a43.180867,43.180867 0 0 0 -4.798172,0.741508c-1.174086,0.249211 -2.332477,0.562352 -3.481297,0.908414c-0.922961,0.277922 -1.833672,0.597188 -2.737109,0.936742l3.572023,0.865156l-2.874156,9.021359l0.45593,-0.190258"/>
   <path stroke="null" id="svg_36" fill="#DF0067" d="m80.45618,58.183766a219.600391,219.600391 0 0 0 -1.900281,-2.461484l-0.099531,-0.125945a161.818672,161.818672 0 0 0 -2.075227,-2.588195a125.634852,125.634852 0 0 0 -2.169398,-2.576328c-0.04632,-0.053977 -0.092641,-0.108719 -0.139727,-0.162312a103.873109,103.873109 0 0 0 -1.843625,-2.061445a90.179523,90.179523 0 0 0 -1.152648,-1.234188a84.794883,84.794883 0 0 0 -0.914539,-0.940188c-0.288641,-0.294383 -0.576516,-0.589914 -0.86975,-0.87932a72.180445,72.180445 0 0 0 -1.920188,-1.830227a44.331984,44.331984 0 0 0 -0.875875,-0.779023a0.066992,0.066992 0 0 0 -0.004211,0.009188c0.620922,1.784672 1.329508,3.591547 1.684375,5.452781c0.092258,0.484258 0.168437,0.955117 0.230453,1.415258c0.865156,6.441586 -1.198969,10.647547 -4.476992,16.180336a275.937375,275.937375 0 0 1 -0.723133,1.211219c-0.749547,1.250266 -1.229594,2.433539 -1.507898,3.544844a10.700375,10.700375 0 0 0 -0.213227,1.086805c6.42857,1.037422 16.095352,1.230742 25.986078,-3.629062c0,0 -1.939711,-2.850805 -4.858273,-6.769656a337.82093,337.82093 0 0 0 -1.973398,-2.62418c-0.060484,-0.080008 -0.122117,-0.159633 -0.182984,-0.238875"/>
   <path stroke="null" id="svg_37" fill="#AA9678" d="m35.497148,86.720141l3.215625,-10.633766l-3.572023,-0.865156c-0.800078,0.300508 -1.592883,0.620922 -2.375352,0.969281l-3.184617,10.529641l3.55518,0.055508l2.361187,-0.055508"/>
   <path stroke="null" id="svg_38" fill="#FFF" d="m37.757656,82.1195c0.313906,0.120586 0.633172,0.229305 0.951672,0.340703a34.247555,34.247555 0 0 0 11.353453,1.932055a34.254828,34.254828 0 0 0 12.834938,-2.487516c0.209781,-0.084219 0.415352,-0.176859 0.622836,-0.265289a35.088594,35.088594 0 0 0 1.002586,-0.444445c0.296297,-0.137812 0.592594,-0.274477 0.884297,-0.420328c-0.070437,0.009187 -0.140875,0.022586 -0.211313,0.030242c-1.233039,0.138961 -2.457273,0.147 -3.652797,-0.024883c-7.07093,-1.01675 -8.637398,-4.425695 -8.41307,-7.976664a17.633875,17.633875 0 0 1 -1.553836,-1.006031c-5.438234,-3.945266 -8.666109,-8.148164 -8.666109,-8.148164s4.195242,3.238211 10.461117,5.661797c0.134367,0.052062 0.260312,0.096852 0.392383,0.147c0.292852,-1.012156 0.639297,-1.974547 0.944016,-2.827836l0.098766,-0.277156c0.348742,-0.981914 0.746484,-1.945836 1.165664,-2.899039c1.581016,-3.594609 3.503883,-7.075906 4.450578,-10.913984l0.45325,-2.143367l-3.867172,0l-0.000383,0.000383l0.000383,0.007656l-0.001531,0.000766c0,0.010336 0.001531,0.020672 0.001531,0.031773a4.604086,4.604086 0 0 1 -0.788594,2.581305a4.64543,4.64543 0 0 1 -2.031203,1.672125a4.597578,4.597578 0 0 1 -2.276203,0.338023c-0.037133,-0.003828 -0.072734,-0.011867 -0.109484,-0.016461c-0.120969,-0.015695 -0.241172,-0.032156 -0.35793,-0.056273c-0.032922,-0.007273 -0.064312,-0.017609 -0.096852,-0.025266c-0.120203,-0.027563 -0.240406,-0.057422 -0.356781,-0.094555c-0.021438,-0.007273 -0.042109,-0.016078 -0.063547,-0.023352c-0.125945,-0.042492 -0.251125,-0.088047 -0.372094,-0.140875c-0.011102,-0.004594 -0.021438,-0.010336 -0.032156,-0.015313a4.627438,4.627438 0 0 1 -0.382813,-0.190641l-0.005742,-0.003445a4.661125,4.661125 0 0 1 -1.072641,-0.832234l-13.248375,-3.233617l-14.458828,0c-0.062016,0.11025 -0.130922,0.215906 -0.191789,0.326539c-0.11025,0.200211 -0.214375,0.403484 -0.320797,0.605227a36.841492,36.841492 0 0 0 -1.002969,2.044984a37.121328,37.121328 0 0 0 -0.822281,1.964211l-0.035219,0.088047a36.832687,36.832687 0 0 0 -1.573359,5.313055c2.276203,6.942687 6.704961,12.908437 12.494234,17.11325c0.168437,0.122117 0.346062,0.230836 0.516797,0.350273a34.370055,34.370055 0 0 0 3.04068,1.906023a34.010594,34.010594 0 0 0 4.296687,2.011297"/>
   <path stroke="null" id="svg_39" fill="#8B7460" d="m72.425156,90.338484a28.542117,28.542117 0 0 1 -0.143937,-2.765438a1.01407,1.01407 0 0 0 -1.013688,-1.01407l-42.535063,0a1.014453,1.014453 0 0 0 -1.01407,1.01407c0,0.931 -0.054742,1.852047 -0.143937,2.765438a28.054797,28.054797 0 0 1 -0.458992,2.989c0.616711,0.326156 1.238398,0.643508 1.870805,0.944398a30.062648,30.062648 0 0 0 0.739594,-5.618922c0.001148,-0.02182 0.003445,-0.044023 0.004211,-0.065844l40.539844,0c0.000766,0.02182 0.003063,0.044023 0.003828,0.065844a30.094805,30.094805 0 0 0 0.739977,5.618922a49.4165,49.4165 0 0 0 1.870805,-0.944398a28.15318,28.15318 0 0 1 -0.459375,-2.989"/>
  </g>
 </g>
</svg>