<svg width="100" height="100" xmlns="http://www.w3.org/2000/svg">

 <g>
  <title>background</title>
  <rect fill="none" id="canvas_background" height="102" width="102" y="-1" x="-1"/>
 </g>
 <g>
  <title>Layer 1</title>
  <g stroke="null" id="svg_3">
   <path stroke="null" id="svg_1" d="m95.5825,49.996559c0,26.626741 -20.407988,48.21197 -45.583719,48.21197c-25.174106,0 -45.581281,-21.58523 -45.581281,-48.21197c0,-26.622443 20.406363,-48.205094 45.581281,-48.205094c25.175731,0 45.583719,21.582651 45.583719,48.205094z"/>
   <path stroke="null" id="svg_2" fill="#fff" d="m74.961086,19.951825c-4.986003,0.170664 -9.338363,2.923161 -12.579221,6.721521c-3.588312,4.170319 -5.972351,9.111687 -7.693866,14.160704c-3.075446,-2.522321 -5.446357,-5.785934 -10.383349,-7.205505c-3.814988,-1.096623 -7.82077,-0.645021 -11.505353,2.0996c-1.743394,1.30317 -2.946792,3.27149 -3.518296,5.127785c-1.480835,4.811839 1.556102,9.098559 2.935414,10.634531l3.016808,3.230356c0.620515,0.634519 2.11973,2.286892 1.386314,4.655178c-0.787678,2.579209 -3.895506,4.24471 -7.082102,3.265364c-1.423947,-0.436724 -3.46841,-1.496589 -3.009806,-2.987051c0.188168,-0.611763 0.625767,-1.072118 0.861195,-1.593736c0.213548,-0.455978 0.317697,-0.793805 0.383337,-0.997726c0.582007,-1.898305 -0.214424,-4.370739 -2.249259,-5.000006c-1.900055,-0.582882 -3.842995,-0.120777 -4.59654,2.323651c-0.855068,2.777879 0.475233,7.819894 7.597594,10.013141c8.345013,2.568706 15.40086,-1.977072 16.402961,-7.899537c0.631018,-3.709964 -1.045862,-6.469464 -4.114306,-10.013141l-2.502191,-2.768251c-1.514093,-1.513217 -2.03396,-4.093301 -0.466481,-6.075625c1.323299,-1.673379 3.206726,-2.38579 6.293549,-1.54735c4.50727,1.221776 6.514099,4.348859 9.864357,6.87118c-1.381062,4.539652 -2.286892,9.095058 -3.104327,13.179607l-0.502364,3.046564c-2.394542,12.560842 -4.223706,19.460028 -8.976031,23.420299c-0.957467,0.681779 -2.326276,1.70051 -4.388243,1.774026c-1.083495,0.032382 -1.432699,-0.712411 -1.447578,-1.037985c-0.02363,-0.757046 0.615264,-1.10625 1.039735,-1.445827c0.636269,-0.346578 1.596361,-0.921584 1.529846,-2.762125c-0.068265,-2.173992 -1.870298,-4.060044 -4.473137,-3.974274c-1.950816,0.06564 -4.922989,1.900055 -4.810964,5.260815c0.114651,3.471911 3.349383,6.072124 8.227737,5.907587c2.607215,-0.08927 8.430783,-1.14826 14.167706,-7.968678c6.678636,-7.819894 8.547184,-16.781922 9.952752,-23.342406l1.56923,-8.661835c0.868196,0.104149 1.802033,0.17504 2.815512,0.199545c8.317882,0.175915 12.476823,-4.130935 12.539837,-7.265894c0.042885,-1.896554 -1.242781,-3.765102 -3.044814,-3.720467c-1.287416,0.035883 -2.905657,0.894452 -3.292495,2.67548c-0.381586,1.74602 2.645724,3.324002 0.280063,4.859975c-1.68038,1.086996 -4.691937,1.851919 -8.934897,1.231404l0.771049,-4.263965c1.574481,-8.085079 3.516546,-18.029079 10.883963,-18.272384c0.538247,-0.025381 2.500441,0.022755 2.546826,1.323299c0.012253,0.431473 -0.095397,0.545248 -0.603011,1.537723c-0.518117,0.773675 -0.712411,1.435325 -0.68703,2.191496c0.070016,2.061967 1.639246,3.420274 3.91301,3.341506c3.039563,-0.101523 3.91126,-3.059692 3.861374,-4.579911c-0.127779,-3.575184 -3.893756,-5.833195 -8.874508,-5.668658z"/>
  </g>
 </g>
</svg>