<svg width="100" height="100" xmlns="http://www.w3.org/2000/svg">

 <g>
  <title>background</title>
  <rect fill="none" id="canvas_background" height="102" width="102" y="-1" x="-1"/>
 </g>
 <g>
  <title>Layer 1</title>
  <g stroke="null" id="svg_3">
   <path stroke="null" id="svg_1" d="m40.106073,45.517738l0,18.037895l-2.513807,0l0,-18.037895l-4.452357,0l0,-2.196435l11.418193,0l0,2.196435l-4.45203,0zm13.492059,8.641926l0,9.39597l-2.603691,0l0,-9.39597l-5.172408,-10.838361l2.773326,0l3.813691,8.177798l3.816306,-8.177798l2.632127,0l-5.25935,10.838361zm13.063559,1.764012l-2.428172,0l0,7.631958l-2.516095,0l0,-20.23433s2.488312,-0.204282 4.888375,-0.204282c4.392216,0 5.664645,2.718088 5.664645,6.273894c0,4.39287 -1.504819,6.53276 -5.608754,6.53276m0.287628,-10.723963c-1.588166,0 -2.716127,0.173558 -2.716127,0.173558l0,8.437644l2.716127,0c1.619871,0 2.748485,-1.068147 2.748485,-4.218659c0.000327,-2.891646 -0.696518,-4.392543 -2.748485,-4.392543m14.397762,18.55628c-4.768094,0 -6.040523,-3.467883 -6.040523,-10.547791c0,-6.794894 1.272756,-10.090854 6.040523,-10.090854c4.767767,0 6.039543,3.29596 6.039543,10.090854c0,7.079907 -1.271775,10.547791 -6.039543,10.547791m0,-18.529152c-2.599442,0 -3.46821,1.764992 -3.46821,8.124848c0,6.21212 0.868768,8.296445 3.46821,8.296445c2.599442,0 3.467883,-2.084325 3.467883,-8.296445c0.000327,-6.359856 -0.868442,-8.124848 -3.467883,-8.124848m13.295622,18.529152c-1.415589,0 -3.523448,-0.431769 -3.787216,-0.493544l0,-2.106224c0.695865,0.14316 2.486678,0.440921 3.759761,0.440921c1.471154,0 2.427845,-1.249222 2.427845,-3.477689c0,-2.627551 -0.430789,-4.015685 -2.48439,-4.015685l-2.371627,0l0,-2.112434l2.079423,0c2.345479,0 2.456281,-2.399082 2.456281,-3.553845c0,-2.284685 -0.719725,-3.210652 -2.164077,-3.210652c-1.271448,0 -2.720376,0.318025 -3.555806,0.492237l0,-2.109493c0.316064,-0.058506 2.024185,-0.492237 3.495992,-0.492237c2.975973,0 4.684421,1.272102 4.684421,5.580971c0,1.966005 -0.696845,3.697005 -2.228793,4.249709c1.764012,0.115705 2.571986,2.05164 2.571986,4.883799c0,4.308216 -1.675435,5.924164 -4.883799,5.924164"/>
   <path stroke="null" id="svg_2" fill="#ff8700" d="m21.023237,55.203297c-0.407583,0.120281 -0.732799,0.165386 -1.159339,0.165386c-3.494358,0 -8.625256,-12.210806 -8.625256,-16.274864c0,-1.495994 0.353979,-1.995095 0.85406,-2.423596c-4.276511,0.499101 -9.408063,2.068636 -11.048852,4.063732c-0.354633,0.499754 -0.570354,1.283215 -0.570354,2.281416c0,6.344167 6.771688,20.740295 11.54828,20.740295c2.21049,0.000327 5.936258,-3.632289 9.001461,-8.552369m-2.230427,-18.959287c4.419018,0 8.840978,0.712534 8.840978,3.207057c0,5.060625 -3.209345,11.19332 -4.847846,11.19332c-2.922697,0 -6.558254,-8.12779 -6.558254,-12.191848c0.000327,-1.853242 0.712861,-2.208528 2.565122,-2.208528"/>
  </g>
 </g>
</svg>